<svg width="360" height="125" viewBox="0 0 360 125" fill="none" xmlns="http://www.w3.org/2000/svg">
<g clip-path="url(#clip0_3_9)">
<path d="M185.861 41.4029L202.988 40.3678C203.379 42.9859 204.096 44.9343 205.268 46.3347C207.156 48.5266 209.761 49.6226 213.213 49.6226C215.753 49.6226 217.771 49.0746 219.139 47.9177C220.441 47.0044 221.223 45.5432 221.223 44.021C221.223 42.5597 220.507 41.1593 219.269 40.246C217.967 39.1501 214.906 38.0541 210.087 37.0799C202.207 35.436 196.541 33.2441 193.22 30.4433C189.899 27.8252 188.01 23.9893 188.14 19.9099C188.14 17.1092 189.052 14.3084 190.745 11.9947C192.699 9.37657 195.369 7.30643 198.56 6.14958C202.012 4.74919 206.831 4.01855 212.887 4.01855C220.311 4.01855 225.977 5.29717 229.884 7.91529C233.792 10.4725 236.136 14.6128 236.852 20.2753L219.92 21.1885C219.465 18.7531 218.553 16.9874 217.055 15.8305C215.557 14.6737 213.604 14.1257 211.064 14.1257C208.98 14.1257 207.417 14.5519 206.375 15.3434C205.398 16.0741 204.747 17.17 204.812 18.3878C204.812 19.3011 205.333 20.1535 206.114 20.7015C206.961 21.4321 208.98 22.1018 212.171 22.7107C220.051 24.2938 225.651 25.8768 229.103 27.5207C232.554 29.1647 235.029 31.1739 236.527 33.5485C238.09 35.984 238.871 38.7848 238.806 41.6464C238.806 45.0561 237.764 48.4657 235.68 51.3274C233.531 54.3108 230.535 56.6245 227.019 58.0249C223.307 59.5471 218.618 60.3386 213.017 60.3386C203.119 60.3386 196.281 58.5729 192.439 54.9806C188.596 51.3883 186.317 46.8827 185.861 41.4029ZM4.10275 59.4253V4.99274H34.1245C39.6599 4.99274 43.958 5.41894 46.8886 6.33224C49.754 7.18465 52.2938 8.95036 53.987 11.3249C55.8755 13.9431 56.7873 16.9874 56.7221 20.1535C56.9175 25.5115 53.987 30.626 48.9725 33.305C47.0188 34.34 44.8698 35.0707 42.6556 35.436C44.2836 35.8622 45.9117 36.5928 47.3444 37.4452C48.4515 38.2977 49.3632 39.2718 50.2098 40.3069C51.1867 41.342 52.0333 42.4988 52.7496 43.7166L61.4761 59.4862H41.0275L31.3893 42.7424C30.152 40.6113 29.11 39.211 28.1331 38.5412C26.8307 37.6888 25.2677 37.2626 23.7048 37.2626H22.1418V59.3644H4.10275V59.4253ZM22.1418 27.0337H29.7612C31.3893 26.9119 32.9522 26.6683 34.5152 26.303C35.6874 26.1204 36.7294 25.5115 37.4457 24.5982C39.2041 22.4063 38.9436 19.3011 36.7945 17.4136C35.6223 16.5003 33.343 16.0132 30.0868 16.0132H22.1418V27.0337ZM0 106.064L17.1274 105.029C17.5181 107.647 18.2344 109.596 19.4067 110.996C21.2301 113.188 23.9001 114.345 27.3517 114.345C29.8915 114.345 31.9103 113.797 33.2779 112.64C34.5803 111.666 35.3618 110.266 35.3618 108.743C35.3618 107.282 34.6454 105.882 33.4081 104.968C32.1056 103.872 29.0449 102.776 24.1606 101.802C16.2808 100.158 10.6151 97.9664 7.29378 95.1657C3.9725 92.5475 2.08394 88.7117 2.21418 84.6323C2.21418 81.8315 3.1259 79.0307 4.8191 76.717C6.77279 74.0989 9.44284 72.0288 12.6339 70.8719C16.0854 69.4715 20.9045 68.7409 26.9609 68.7409C34.385 68.7409 40.0507 70.0195 43.958 72.6376C47.8654 75.2558 50.1447 79.3352 50.8611 84.9976L33.9291 85.9109C33.4732 83.4754 32.5615 81.7097 31.0637 80.5529C29.631 79.3961 27.6122 78.8481 25.0724 78.909C22.9884 78.909 21.4255 79.3352 20.3835 80.1876C19.3415 80.9182 18.7554 82.0142 18.8206 83.2319C18.8206 84.1452 19.3415 84.9976 20.123 85.5456C20.9696 86.2762 22.9884 86.946 26.1795 87.5548C34.0593 89.1379 39.6599 90.7209 43.1114 92.3649C46.563 94.0088 49.0376 96.0181 50.5355 98.3926C52.0984 100.828 52.8799 103.629 52.8799 106.43C52.8799 109.839 51.7728 113.188 49.754 116.05C47.6049 119.033 44.6093 121.347 41.0926 122.747C37.3806 124.269 32.6918 125.061 27.0912 125.061C17.1925 125.061 10.3546 123.295 6.5123 119.703C2.67004 116.05 0.520984 111.544 0 106.064H0Z" fill="black"/>
<path d="M86.6136 101.802L102.373 106.247C101.527 109.961 99.7685 113.493 97.3589 116.598C95.1447 119.338 92.2142 121.469 88.8929 122.869C85.5065 124.269 81.2084 125 75.9986 125C69.6816 125 64.4718 124.148 60.4993 122.443C56.4617 120.738 53.0101 117.694 50.0796 113.371C47.1491 109.048 45.7164 103.507 45.7164 96.7488C45.7164 87.7376 48.2562 80.7965 53.4009 75.9865C58.5456 71.1764 65.7743 68.741 75.152 68.741C82.5109 68.741 88.2417 70.1414 92.4747 72.8812C96.6426 75.682 99.7685 79.9441 101.852 85.6674L85.9624 88.9553C85.5717 87.6767 84.9855 86.3981 84.2041 85.3021C83.2272 84.0235 81.9899 83.0493 80.4921 82.3187C78.9942 81.588 77.301 81.2836 75.6078 81.2836C71.5051 81.2836 68.3792 82.8058 66.2301 85.911C64.602 88.1638 63.7554 91.7561 63.7554 96.627C63.7554 102.655 64.7323 106.795 66.686 109.048C68.6397 111.301 71.3748 112.397 74.9566 112.397C78.4081 112.397 81.013 111.483 82.7714 109.718C84.5297 107.83 85.8321 105.212 86.6136 101.802ZM123.408 69.6543H141.382V88.7117H161.049V69.6543H179.153V124.087H161.049V102.046H141.382V124.087H123.408V69.6543Z" fill="black"/>
<path d="M176.679 96.8704C176.679 87.981 179.349 81.0399 184.624 76.1081C189.899 71.1763 197.323 68.6799 206.766 68.6799C216.469 68.6799 223.893 71.1154 229.168 75.9863C234.443 80.8572 237.048 87.6765 237.048 96.4442C237.048 102.837 235.876 108.013 233.596 112.092C231.382 116.111 227.931 119.398 223.698 121.59C219.334 123.843 213.929 125 207.482 125C200.904 125 195.499 124.026 191.201 122.077C186.773 120.007 183.126 116.78 180.716 112.823C178.046 108.561 176.679 103.263 176.679 96.8704ZM194.653 96.9313C194.653 102.411 195.76 106.369 197.909 108.804C200.058 111.179 203.054 112.396 206.831 112.396C210.673 112.396 213.669 111.24 215.818 108.865C217.967 106.49 219.009 102.289 219.009 96.2006C219.009 91.0862 217.902 87.3112 215.687 84.9975C213.473 82.6229 210.478 81.4661 206.7 81.4661C203.379 81.3443 200.188 82.6838 197.974 85.0584C195.76 87.433 194.653 91.3906 194.653 96.9313ZM255.478 96.8704C255.478 87.981 258.148 81.0399 263.423 76.1081C268.698 71.1763 276.122 68.6799 285.564 68.6799C295.268 68.6799 302.757 71.1154 307.967 75.9863C313.177 80.8572 315.847 87.6765 315.847 96.4442C315.847 102.837 314.674 108.013 312.395 112.092C310.181 116.111 306.729 119.398 302.496 121.59C298.133 123.843 292.728 125 286.281 125C279.703 125 274.298 124.026 270 122.077C265.572 120.007 261.925 116.78 259.515 112.823C256.845 108.561 255.478 103.263 255.478 96.8704ZM273.452 96.9313C273.452 102.411 274.559 106.369 276.708 108.804C278.857 111.179 281.852 112.396 285.63 112.396C289.472 112.396 292.467 111.24 294.617 108.865C296.766 106.49 297.808 102.289 297.808 96.2006C297.808 91.0862 296.7 87.3112 294.486 84.9975C292.272 82.6229 289.276 81.4661 285.499 81.4661C282.178 81.3443 278.922 82.6838 276.773 85.0584C274.559 87.433 273.452 91.3906 273.452 96.9313Z" fill="black"/>
<path d="M313.958 69.6541H331.932V110.692H360V124.087H313.893V69.6541H313.958Z" fill="black"/>
<path d="M294.147 66.5129C312.243 53.7633 317.823 32.1506 306.61 18.2397C295.398 4.32872 271.639 3.38729 253.543 16.1369C235.447 28.8865 229.867 50.4992 241.079 64.4102C252.292 78.3211 276.051 79.2625 294.147 66.5129Z" fill="white"/>
<path d="M294.147 66.5127C312.243 53.763 317.823 32.1504 306.61 18.2394C295.398 4.32847 271.639 3.38704 253.543 16.1367C235.447 28.8863 229.867 50.499 241.079 64.4099C252.292 78.3209 276.051 79.2623 294.147 66.5127Z" fill="white"/>
<path d="M294.147 66.5127C312.243 53.763 317.823 32.1504 306.61 18.2394C295.398 4.32847 271.639 3.38704 253.543 16.1367C235.447 28.8863 229.867 50.499 241.079 64.4099C252.292 78.3209 276.051 79.2623 294.147 66.5127Z" stroke="black" stroke-width="4" stroke-miterlimit="10"/>
<path d="M255.543 37.3235L262.055 33.0614L270.065 43.7166C271.433 45.4214 272.475 47.248 273.256 49.2572C273.712 50.7794 273.582 52.4233 272.931 53.8846C272.084 55.7112 270.716 57.2334 268.893 58.3293C266.744 59.7297 264.92 60.5212 263.357 60.7648C261.86 61.0083 260.297 60.7648 258.864 60.1559C257.301 59.4253 255.933 58.3902 254.891 57.0507L260.492 52.1798C260.948 52.8495 261.534 53.4584 262.185 53.9455C262.641 54.2499 263.162 54.4326 263.748 54.4326C264.204 54.4326 264.66 54.2499 264.986 54.0064C265.637 53.641 266.093 52.9104 266.028 52.1798C265.832 51.1447 265.376 50.1096 264.66 49.3181L255.543 37.3235ZM275.08 44.0819L281.006 39.698C281.657 40.4287 282.504 40.9767 283.415 41.2811C284.718 41.6464 286.085 41.4029 287.193 40.6113C287.974 40.1242 288.625 39.4545 288.886 38.6021C289.276 37.5061 288.625 36.2884 287.453 35.9231C287.258 35.8622 287.062 35.8013 286.867 35.8013C286.085 35.7404 284.718 36.0448 282.699 36.8364C279.378 38.115 276.773 38.6021 274.819 38.4194C272.931 38.2368 271.172 37.3235 270.13 35.8013C269.349 34.7662 268.958 33.5485 268.893 32.3308C268.893 30.9304 269.284 29.53 270.13 28.3731C271.368 26.7292 272.865 25.3288 274.689 24.2329C277.424 22.4672 279.834 21.6147 281.918 21.6147C284.001 21.6147 285.955 22.528 287.779 24.4155L281.918 28.7385C280.745 27.3381 278.531 27.0336 277.033 28.1296L276.838 28.3123C276.187 28.6776 275.731 29.2256 275.47 29.8953C275.275 30.3824 275.405 30.9304 275.731 31.3566C275.991 31.661 276.382 31.9046 276.838 31.9046C277.359 31.9655 278.271 31.7219 279.573 31.1739C282.829 29.8953 285.304 29.1647 286.997 28.9211C288.43 28.6776 289.928 28.7994 291.295 29.3473C292.533 29.8344 293.575 30.6868 294.291 31.7219C295.203 32.9396 295.724 34.4009 295.789 35.9231C295.854 37.5061 295.398 39.0283 294.486 40.3678C293.314 42.0117 291.816 43.4121 290.058 44.5081C286.476 46.8218 283.546 47.7959 281.201 47.4306C278.661 47.0653 276.577 45.8476 275.08 44.0819Z" fill="black"/>
</g>
<defs>
<clipPath id="clip0_3_9">
<rect width="360" height="125" fill="white"/>
</clipPath>
</defs>
</svg>
